<svg width="56" height="62" viewBox="0 0 56 62" fill="none" xmlns="http://www.w3.org/2000/svg">
<path d="M0.00178914 28.1675C0.875783 27.3432 1.65048 26.4497 2.46812 25.5854C3.86901 24.1054 5.26633 22.6231 6.65917 21.1377C8.52882 19.1428 10.3904 17.1426 12.2601 15.1485C13.9991 13.2937 15.7489 11.4458 17.4879 9.59105C19.2368 7.72625 20.9776 5.85607 22.7247 3.98973C23.7615 2.88224 24.8046 1.77937 25.8441 0.67496C26.1536 0.346331 26.5615 0.14315 27.016 0H28C28.8543 0.20395 29.3186 0.813492 29.8401 1.34684C33.1187 4.70009 36.3812 8.06566 39.6535 11.4235C42.0832 13.9171 44.5236 16.403 46.9523 18.8973C49.1422 21.1462 51.3196 23.4027 53.5077 25.6523C54.3298 26.4974 55.1689 27.3301 56 28.1682V28.3991C55.33 28.867 54.6519 29.3265 53.9944 29.8075C53.7421 29.9922 53.5963 29.9822 53.3807 29.7598C51.0933 27.3978 48.7951 25.0428 46.4988 22.687C43.5047 19.6146 40.507 16.5438 37.5155 13.47C34.9633 10.8478 32.4174 8.22112 29.867 5.59747C29.1978 4.90943 28.5162 4.23139 27.8551 3.53796C27.6252 3.29784 27.4722 3.24473 27.2101 3.52565C24.7402 6.17315 22.2533 8.80911 19.7789 11.4535C17.4164 13.9771 15.0681 16.5107 12.702 19.0328C10.1587 21.7442 7.60115 24.4456 5.05252 27.1531C4.25636 27.9989 3.4584 28.844 2.68013 29.7029C2.42875 29.9807 2.23463 29.9461 1.95374 29.7436C1.31412 29.2834 0.653035 28.8463 0 28.3999C0 28.3229 0 28.246 0 28.169L0.00178914 28.1675Z" fill="white"/>
<path d="M41.5596 15.8641V6.69189H50.3646V24.6542" stroke="white" stroke-width="3" stroke-linejoin="round"/>
<path d="M44.3884 29.4207C43.9813 28.9191 43.5102 28.4713 43.0973 27.9755C42.5419 27.3066 41.9342 26.6873 41.3322 26.0635C40.9527 25.6709 40.5602 25.2915 40.1691 24.9091C39.5846 24.3391 38.9725 23.8012 38.3313 23.2952C37.8515 22.9172 37.392 22.5202 36.8657 22.1974C36.492 21.9692 36.1416 21.6915 35.7679 21.453C35.3434 21.184 34.8985 20.9529 34.4666 20.6999C33.8196 20.3204 33.1246 20.0587 32.4326 19.8042C31.534 19.4742 30.5977 19.2648 29.6366 19.1572C28.8442 19.0671 27.207 19.1092 26.5135 19.3143C26.4728 19.3259 26.4204 19.3375 26.3826 19.3244C26.0541 19.2067 25.7313 19.3695 25.4739 19.4756C25.25 19.5672 25.0043 19.5789 24.7804 19.6821C24.5274 19.7999 24.286 19.9845 24.0258 20.0412C23.5809 20.1386 23.1912 20.3393 22.8117 20.5574C22.2272 20.8918 21.6413 21.232 21.1179 21.6624C20.8271 21.9023 20.5116 22.1189 20.2397 22.3734C19.6886 22.8895 19.1419 23.4057 18.6709 24.0091C18.0864 24.7579 17.5077 25.5067 17.0439 26.3354C16.5394 27.2369 16.0988 28.1747 15.8793 29.1837C15.7266 29.8801 15.5463 30.5562 15.2381 31.1974C14.9342 31.8285 14.5562 32.4173 14.0953 32.9393C13.409 33.72 12.6442 34.4296 11.7602 34.9792C11.4229 35.1885 11.1248 35.4532 10.757 35.632C10.4124 35.7992 9.98493 35.8661 9.75521 36.2572C9.50513 36.6832 9.19544 37.1005 9.33938 37.6166C9.51531 38.2448 9.5662 38.8947 9.88897 39.5024C10.2496 40.1843 10.6654 40.8066 11.167 41.3809C11.9143 42.2388 12.8565 42.8698 13.7841 43.4979C14.4006 43.9152 15.1159 44.1929 15.7891 44.5288C16.2704 44.7701 16.7938 44.9286 17.3056 45.1031C17.9773 45.3313 18.6563 45.5422 19.3339 45.7544C19.5432 45.8199 19.7657 45.846 19.9707 45.9231C20.5726 46.1485 21.1339 45.9813 21.5642 45.5C21.8623 45.167 21.9728 44.7527 22.1604 44.3746C22.5442 43.5953 22.928 42.8174 23.373 42.0701C23.5242 41.8171 23.6725 41.8157 23.8586 42.0163C23.9109 42.073 23.9691 42.1239 24.0171 42.1835C24.5986 42.8945 25.1032 43.6578 25.5553 44.4561C25.7909 44.8704 26.1907 45.1147 26.6255 45.1351C27.2434 45.1656 27.8468 45.2237 28.4618 45.3183C29.8896 45.5378 31.1473 46.1048 32.3061 46.9263C32.9414 47.3771 33.43 47.9775 33.9214 48.5708C33.5216 48.8252 33.2337 49.5289 33.2337 50.3577C33.2337 51.4016 33.6888 52.2478 34.2515 52.2478C34.2718 52.2478 34.2907 52.2449 34.3096 52.242C34.3532 52.319 34.33 52.4179 34.2631 52.556C33.9069 53.2903 33.4663 53.9664 32.9691 54.609C32.6099 55.0728 32.1912 55.4727 31.7099 55.8071C31.4221 56.0077 31.156 56.2476 30.8492 56.409C30.3549 56.6678 29.8634 56.9368 29.3269 57.1142C28.7206 57.3148 28.1434 57.5998 27.5095 57.7234C27.1503 57.7932 26.7898 57.8673 26.4321 57.94C25.8956 58.0476 25.3547 58.0883 24.8982 58.1741C24.5943 58.148 24.3806 58.1945 24.1625 58.225C23.4427 58.3253 22.9164 59.0232 22.9644 59.7473C23.0211 60.611 23.9574 61.2783 24.7818 61.1576C25.2864 61.0835 25.7952 61.0646 26.2998 60.9555C26.8595 60.8334 27.4469 60.8392 28.0038 60.6706C28.7003 60.4612 29.4141 60.3013 30.0873 60.0337C31.1662 59.6048 32.2057 59.0959 33.1421 58.382C33.7557 57.9139 34.3285 57.4137 34.8461 56.8467C35.4481 56.1866 35.9628 55.4712 36.3975 54.6803C36.7697 54.0027 37.0823 53.3077 37.3484 52.5895C37.5432 52.0646 37.6653 51.5092 37.8384 50.9829C38.0492 50.3388 37.9401 49.7601 37.6988 49.2396C37.3033 48.3861 36.8802 47.5341 36.2739 46.7897C35.9104 46.3433 35.5586 45.8838 35.1355 45.5C34.3474 44.7817 33.5187 44.1086 32.5576 43.6186C31.7012 43.1824 30.8027 42.8625 29.878 42.5964C29.2033 42.4031 28.5171 42.3129 27.8279 42.2184C27.6868 42.1995 27.588 42.1501 27.5138 42.0163C27.1576 41.3751 26.6894 40.8124 26.23 40.2469C25.4696 39.312 24.6437 38.4556 23.4035 38.1633C23.3293 38.1459 23.2712 38.1124 23.1869 38.1546C22.6533 38.4134 22.2592 38.8496 21.8608 39.2596C21.5104 39.6202 21.2022 40.0288 20.9332 40.4693C20.5814 41.0422 20.244 41.6208 19.9809 42.2359C19.789 42.6822 19.6799 42.7549 19.2117 42.6299C17.9642 42.2969 16.7996 41.7691 15.6714 41.1527C15.2613 40.9288 14.8688 40.6772 14.5053 40.3821C14.2901 40.2076 14.3773 40.0564 14.5445 39.927C14.8353 39.7045 15.2599 39.1898 15.3529 38.8685C15.5361 38.2389 15.4867 37.4771 15.2075 36.833C15.1785 36.7661 14.8993 36.263 15.2308 35.9664C15.4649 35.757 15.7121 35.5564 15.9171 35.3223C16.3823 34.7887 16.8447 34.2478 17.2213 33.6488C17.6226 33.012 17.9788 32.3446 18.2478 31.638C18.4891 31.0026 18.6461 30.3454 18.8017 29.6853C18.9777 28.9394 19.2946 28.2459 19.6857 27.5844C20.1539 26.7963 20.7093 26.0722 21.3302 25.402C21.7009 25.0007 22.1196 24.6474 22.5442 24.297C23.1272 23.8157 23.7553 23.4086 24.4067 23.0538C25.2224 22.6104 26.1137 22.3123 27.0398 22.1742C28.078 22.0186 29.1117 21.9459 30.1557 22.2193C30.8012 22.3894 31.4337 22.5827 32.056 22.8212C32.9487 23.1629 33.7673 23.647 34.5713 24.1516C35.3695 24.6532 36.0849 25.2697 36.8293 25.8483C37.6057 26.4517 38.3051 27.1409 38.9957 27.833C39.7285 28.5672 40.409 29.3538 41.1083 30.1215C41.2261 30.2509 41.3773 30.3832 41.0429 30.4806C40.8989 30.5228 40.7376 30.6231 40.5965 30.722C40.1618 31.0259 39.6733 31.2309 39.1644 31.3588C38.7544 31.4621 38.3327 31.5653 37.9416 31.6947C37.488 31.8444 37.0271 31.9055 36.5792 31.936C35.339 32.0204 34.109 31.9186 32.9065 31.542C31.6605 31.1538 30.5279 30.565 29.5028 29.7682C29.0158 29.3902 28.4095 29.3218 27.8642 29.6301C27.0849 30.0692 26.9642 30.8906 27.2986 31.5827C27.5996 32.2036 28.2146 32.4856 28.7395 32.823C29.7137 33.4482 30.7692 33.9469 31.883 34.2885C32.3206 34.4223 32.7423 34.6157 33.2075 34.6651C33.76 34.7247 34.3096 34.8105 34.8607 34.8716C35.2387 34.9137 35.6153 35.0024 36.0006 34.9574C36.7261 34.873 37.456 34.8425 38.1728 34.6695C38.8387 34.5081 39.509 34.3641 40.1531 34.1286C41.5489 33.6197 42.8371 32.9015 44.0686 32.0829C44.5382 31.7703 44.9031 31.3617 45.0151 30.7729C45.1314 30.1666 44.7069 29.8075 44.3899 29.4163L44.3884 29.4207Z" fill="white"/>
<path d="M21.6048 33.6373C22.0866 33.6373 22.4772 32.9538 22.4772 32.1106C22.4772 31.2675 22.0866 30.584 21.6048 30.584C21.123 30.584 20.7324 31.2675 20.7324 32.1106C20.7324 32.9538 21.123 33.6373 21.6048 33.6373Z" fill="white"/>
<path d="M27.7117 50.9395C28.1935 50.9395 28.5841 50.256 28.5841 49.4129C28.5841 48.5697 28.1935 47.8862 27.7117 47.8862C27.2299 47.8862 26.8394 48.5697 26.8394 49.4129C26.8394 50.256 27.2299 50.9395 27.7117 50.9395Z" fill="white"/>
<path opacity="0.5" d="M39.7433 29.1828C40.8862 27.4356 39.3885 24.4335 36.3981 22.4774C33.4077 20.5213 30.057 20.3519 28.9141 22.0991C27.7712 23.8463 29.2689 26.8484 32.2593 28.8045C35.2497 30.7606 38.6004 30.93 39.7433 29.1828Z" fill="white"/>
<path opacity="0.5" d="M28.9048 57.937C30.8841 57.0367 32.0623 55.3694 31.5363 54.2131C31.0103 53.0567 28.9793 52.8492 27 53.7496C25.0206 54.65 23.8424 56.3173 24.3684 57.4736C24.8944 58.6299 26.9254 58.8374 28.9048 57.937Z" fill="white"/>
</svg>
