<svg width="40" height="44" viewBox="0 0 40 44" fill="none" xmlns="http://www.w3.org/2000/svg">
<path d="M0.00127796 20.1196C0.625559 19.5308 1.17891 18.8926 1.76294 18.2753C2.76358 17.2181 3.76166 16.1593 4.75655 15.0984C6.09201 13.6735 7.42173 12.2447 8.75719 10.8204C9.99936 9.49551 11.2492 8.1756 12.4914 6.85075C13.7406 5.51875 14.984 4.1829 16.2319 2.84981C16.9725 2.05874 17.7176 1.27098 18.4601 0.482114C18.6812 0.247379 18.9725 0.10225 19.2971 0H20C20.6102 0.145679 20.9419 0.581066 21.3144 0.962029C23.6562 3.35721 25.9866 5.76118 28.324 8.15966C30.0594 9.94079 31.8026 11.7164 33.5374 13.4981C35.1016 15.1044 36.6569 16.7162 38.2198 18.3231C38.807 18.9267 39.4064 19.5215 40 20.1202V20.2851C39.5214 20.6193 39.0371 20.9475 38.5674 21.2911C38.3872 21.423 38.2831 21.4159 38.1291 21.257C36.4952 19.5699 34.8537 17.8877 33.2134 16.205C31.0748 14.0104 28.9335 11.817 26.7968 9.62139C24.9738 7.74846 23.1553 5.87223 21.3335 3.99819C20.8556 3.50673 20.3687 3.02242 19.8965 2.52711C19.7323 2.3556 19.623 2.31767 19.4358 2.51832C17.6716 4.40939 15.8952 6.29222 14.1278 8.1811C12.4403 9.98367 10.7629 11.7934 9.07284 13.5949C7.25623 15.5316 5.42939 17.4611 3.60895 19.3951C3.04026 19.9992 2.47029 20.6028 1.91438 21.2163C1.73482 21.4148 1.59617 21.39 1.39553 21.2455C0.938658 20.9167 0.466454 20.6045 0 20.2856C0 20.2307 0 20.1757 0 20.1207L0.00127796 20.1196Z" fill="#FFA800"/>
<path d="M29.6855 11.3315V4.77988H35.9749V17.6101" stroke="#FFA800" stroke-width="2" stroke-linejoin="round"/>
<path d="M31.7062 21.0149C31.4154 20.6566 31.079 20.3368 30.784 19.9826C30.3873 19.5049 29.9532 19.0625 29.5232 18.6169C29.2522 18.3365 28.9718 18.0655 28.6924 17.7923C28.2749 17.3852 27.8377 17.001 27.3797 16.6396C27.037 16.3695 26.7088 16.086 26.3328 15.8555C26.0659 15.6924 25.8156 15.4941 25.5487 15.3237C25.2455 15.1316 24.9277 14.9665 24.6192 14.7858C24.1571 14.5147 23.6607 14.3278 23.1663 14.146C22.5245 13.9103 21.8557 13.7607 21.1692 13.6839C20.6032 13.6195 19.4338 13.6496 18.9384 13.796C18.9093 13.8044 18.872 13.8127 18.845 13.8033C18.6102 13.7192 18.3797 13.8355 18.1959 13.9113C18.0359 13.9767 17.8604 13.9851 17.7005 14.0588C17.5198 14.1429 17.3474 14.2748 17.1615 14.3153C16.8437 14.3849 16.5654 14.5282 16.2943 14.684C15.8768 14.9229 15.4583 15.1659 15.0844 15.4733C14.8767 15.6446 14.6513 15.7994 14.4571 15.9811C14.0635 16.3498 13.673 16.7185 13.3365 17.1495C12.919 17.6843 12.5057 18.2192 12.1744 18.8112C11.814 19.455 11.4994 20.1249 11.3425 20.8457C11.2335 21.3431 11.1047 21.826 10.8845 22.284C10.6675 22.7348 10.3975 23.1554 10.0683 23.5282C9.57807 24.0859 9.03179 24.5927 8.40036 24.9853C8.15942 25.1348 7.94652 25.3238 7.68377 25.4516C7.43764 25.571 7.13231 25.6188 6.96822 25.8981C6.78959 26.2024 6.56838 26.5005 6.67119 26.8692C6.79686 27.3178 6.83321 27.7821 7.06376 28.2162C7.32132 28.7032 7.61834 29.1477 7.97664 29.558C8.51045 30.1707 9.18342 30.6214 9.84601 31.0701C10.2864 31.3681 10.7973 31.5665 11.2782 31.8064C11.6219 31.9788 11.9958 32.092 12.3614 32.2166C12.8412 32.3797 13.3262 32.5303 13.8101 32.6819C13.9597 32.7286 14.1186 32.7473 14.265 32.8024C14.695 32.9633 15.0958 32.8439 15.4032 32.5001C15.6161 32.2623 15.6951 31.9663 15.829 31.6963C16.1032 31.1397 16.3774 30.584 16.6952 30.0502C16.8032 29.8695 16.9091 29.8685 17.0421 30.0118C17.0794 30.0523 17.121 30.0887 17.1553 30.1312C17.5707 30.6391 17.931 31.1843 18.254 31.7545C18.4223 32.0505 18.7079 32.2249 19.0184 32.2395C19.4598 32.2613 19.8908 32.3028 20.3301 32.3703C21.3499 32.5271 22.2483 32.9322 23.076 33.519C23.5298 33.8409 23.8788 34.2698 24.2298 34.6935C23.9442 34.8753 23.7386 35.3779 23.7386 35.9699C23.7386 36.7156 24.0636 37.32 24.4655 37.32C24.4801 37.32 24.4936 37.3179 24.5071 37.3159C24.5382 37.3709 24.5216 37.4415 24.4738 37.5402C24.2194 38.0646 23.9047 38.5476 23.5495 39.0066C23.293 39.3379 22.9939 39.6235 22.6502 39.8624C22.4445 40.0057 22.2545 40.177 22.0354 40.2923C21.6822 40.4772 21.3312 40.6693 20.948 40.796C20.5149 40.9393 20.1026 41.1429 19.6498 41.2312C19.3933 41.281 19.1357 41.334 18.8803 41.3859C18.497 41.4627 18.1107 41.4918 17.7846 41.5531C17.5676 41.5344 17.4149 41.5676 17.2591 41.5894C16.745 41.6611 16.3691 42.1596 16.4033 42.6768C16.4439 43.2937 17.1127 43.7704 17.7015 43.6842C18.0619 43.6312 18.4254 43.6177 18.7858 43.5398C19.1856 43.4526 19.6052 43.4567 20.0029 43.3363C20.5004 43.1867 21.0103 43.0725 21.4912 42.8814C22.2618 42.575 23.0043 42.2115 23.6731 41.7016C24.1114 41.3672 24.5206 41.0099 24.8903 40.6049C25.3203 40.1334 25.6879 39.6225 25.9984 39.0575C26.2643 38.5735 26.4876 38.0771 26.6776 37.5641C26.8168 37.1892 26.904 36.7924 27.0276 36.4165C27.1782 35.9564 27.1003 35.5431 26.9279 35.1713C26.6454 34.5616 26.3432 33.9531 25.9101 33.4213C25.6505 33.1025 25.3992 32.7743 25.097 32.5001C24.5341 31.9871 23.9421 31.5063 23.2556 31.1563C22.6439 30.8447 22.0021 30.6162 21.3416 30.4262C20.8597 30.2881 20.3695 30.2237 19.8773 30.1562C19.7765 30.1427 19.7059 30.1074 19.6529 30.0118C19.3985 29.5538 19.0641 29.1519 18.7359 28.7479C18.1928 28.0801 17.6029 27.4684 16.717 27.2597C16.664 27.2472 16.6225 27.2233 16.5622 27.2534C16.1811 27.4383 15.8997 27.7499 15.6151 28.0427C15.3648 28.3003 15.1446 28.5921 14.9525 28.9068C14.7012 29.316 14.4602 29.7293 14.2723 30.1686C14.1352 30.4875 14.0573 30.5394 13.7229 30.4501C12.8318 30.2122 11.9999 29.8353 11.194 29.3949C10.9012 29.235 10.6208 29.0553 10.3611 28.8445C10.2074 28.7199 10.2697 28.6119 10.3892 28.5194C10.5969 28.3605 10.9001 27.9929 10.9666 27.7634C11.0975 27.3137 11.0621 26.7695 10.8627 26.3094C10.842 26.2616 10.6426 25.9023 10.8794 25.6904C11.0466 25.5409 11.2231 25.3976 11.3695 25.2304C11.7019 24.8492 12.0321 24.4629 12.3011 24.035C12.5878 23.5801 12.8422 23.1034 13.0343 22.5987C13.2067 22.1449 13.3189 21.6754 13.43 21.2039C13.5557 20.6712 13.7821 20.1758 14.0614 19.7033C14.3959 19.1404 14.7926 18.6232 15.236 18.1444C15.5009 17.8578 15.8 17.6054 16.1032 17.3551C16.5197 17.0114 16.9683 16.7206 17.4336 16.4672C18.0162 16.1504 18.6528 15.9375 19.3144 15.8389C20.0559 15.7277 20.7943 15.6758 21.54 15.871C22.0011 15.9926 22.4528 16.1307 22.8973 16.301C23.535 16.5451 24.1197 16.8909 24.694 17.2513C25.2642 17.6096 25.7751 18.0499 26.3069 18.4632C26.8614 18.8942 27.361 19.3865 27.8543 19.8808C28.3777 20.4053 28.8638 20.9672 29.3633 21.5155C29.4474 21.6079 29.5554 21.7024 29.3166 21.772C29.2137 21.8021 29.0985 21.8738 28.9977 21.9444C28.6872 22.1615 28.3382 22.3079 27.9748 22.3993C27.6819 22.473 27.3807 22.5468 27.1013 22.6392C26.7773 22.7462 26.4481 22.7898 26.1282 22.8116C25.2424 22.8718 24.3638 22.7991 23.5049 22.5302C22.6149 22.2529 21.8058 21.8323 21.0737 21.2631C20.7258 20.9931 20.2927 20.9443 19.9032 21.1645C19.3466 21.4781 19.2604 22.0649 19.4992 22.5592C19.7142 23.0027 20.1535 23.2042 20.5284 23.4451C21.2243 23.8917 21.9782 24.2479 22.7738 24.492C23.0864 24.5875 23.3875 24.7256 23.7199 24.7609C24.1145 24.8035 24.5071 24.8648 24.9007 24.9084C25.1707 24.9385 25.4397 25.0019 25.7149 24.9697C26.2331 24.9095 26.7545 24.8876 27.2665 24.7641C27.7421 24.6488 28.2209 24.546 28.681 24.3777C29.678 24.0142 30.5981 23.5012 31.4778 22.9165C31.8132 22.6932 32.0739 22.4014 32.1538 21.9808C32.2369 21.5477 31.9337 21.2912 31.7073 21.0118L31.7062 21.0149Z" fill="#FFA800"/>
<path d="M15.4322 24.0267C15.7763 24.0267 16.0553 23.5385 16.0553 22.9362C16.0553 22.334 15.7763 21.8458 15.4322 21.8458C15.0881 21.8458 14.8091 22.334 14.8091 22.9362C14.8091 23.5385 15.0881 24.0267 15.4322 24.0267Z" fill="#FFA800"/>
<path d="M19.794 36.3853C20.1382 36.3853 20.4171 35.8971 20.4171 35.2949C20.4171 34.6926 20.1382 34.2044 19.794 34.2044C19.4499 34.2044 19.1709 34.6926 19.1709 35.2949C19.1709 35.8971 19.4499 36.3853 19.794 36.3853Z" fill="#FFA800"/>
<path opacity="0.5" d="M28.388 20.845C29.2044 19.597 28.1346 17.4527 25.9986 16.0555C23.8626 14.6582 21.4693 14.5373 20.6529 15.7853C19.8366 17.0333 20.9064 19.1776 23.0424 20.5748C25.1783 21.9721 27.5717 22.093 28.388 20.845Z" fill="#FFA800"/>
<path opacity="0.5" d="M20.6461 41.384C22.0599 40.7409 22.9015 39.5499 22.5258 38.724C22.1501 37.898 20.6994 37.7498 19.2855 38.393C17.8717 39.0361 17.0302 40.227 17.4059 41.0529C17.7816 41.8789 19.2323 42.0271 20.6461 41.384Z" fill="#FFA800"/>
</svg>
